<svg xmlns="http://www.w3.org/2000/svg" viewBox="0 0 314 226">
  <path fill="currentColor" fill-rule="evenodd" d="M146.49.372v66.363l19.85 10.32V45.038h5.206v34.853l107.716 56.603-3.13 5.288-104.586-55.248v9.668l107.716 57.68-3.13 4.923-104.586-55.299v69.785h117.568v5.15H171.546v8.733h141.467v5.767H171.546v30.98c-3.47 1.845-5.206 1.845-5.206 0v-30.98H21.235V100.5L.335 112V89.704l92.73-51.728 48.238 25.864V.372h5.187Zm19.504 178.491h-19.262v8.31h19.262v-8.31Zm-25.312 0h-33.217v8.31h33.217v-8.31Zm6.05-88.664v82.708h19.262v-72.589l-19.262-10.12ZM92.897 61.518 41.16 90.198v82.709h39.171v-35.655h27.133v35.655h33.217V86.422L92.897 61.518Zm53.835 12.187v10.403l19.262 10.403V83.86l-19.262-10.154ZM92.897 45.28v10.1l47.785 25.327V70.061l-47.785-24.78Z"/>
</svg>
